<?xml version="1.0" encoding="UTF-8" standalone="no"?>
<!DOCTYPE svg PUBLIC "-//W3C//DTD SVG 1.1//EN" "http://www.w3.org/Graphics/SVG/1.1/DTD/svg11.dtd">
<svg width="100%" height="100%" viewBox="0 0 500 500" version="1.1" xmlns="http://www.w3.org/2000/svg" xmlns:xlink="http://www.w3.org/1999/xlink" xml:space="preserve" xmlns:serif="http://www.serif.com/" style="fill-rule:evenodd;clip-rule:evenodd;stroke-linejoin:round;stroke-miterlimit:2;">
    <g transform="matrix(2.99629,0,0,2.99629,-483.559,-567.369)">
        <path d="M300.17,257.487L257.86,221.445L234.631,202.63C234.631,202.63 227.431,196.076 223.235,194.551C219.038,193.025 213.697,192.246 209.454,193.476C205.211,194.706 201.32,198.684 197.778,201.932C193.52,205.836 187.951,211.432 183.906,216.902C179.442,222.938 174.288,230.917 170.993,238.148C167.79,245.178 165.713,253.284 164.138,260.288C162.671,266.81 160.835,273.527 161.542,280.175C162.313,287.424 164.91,296.51 168.763,303.781C172.89,311.573 180.912,321.178 186.309,326.925C190.569,331.461 195.761,335.137 201.143,338.263C207.562,341.991 216.681,346.906 224.824,349.296C232.945,351.679 242.495,353.163 250,352.599C256.964,352.077 263.617,349.053 269.856,345.915C276.783,342.431 284.572,336.789 291.562,331.694C298.731,326.467 307.478,319.357 312.872,314.553C316.876,310.988 321.443,306.237 323.927,302.871C325.776,300.364 327.22,297.42 327.775,294.355C328.341,291.229 328.648,287.265 327.322,284.117C325.961,280.888 322.456,277.773 319.611,274.982C315.086,270.544 300.17,257.487 300.17,257.487Z" style="fill:rgb(255,160,3);"/>
        <clipPath id="_clip1">
            <path d="M300.17,257.487L257.86,221.445L234.631,202.63C234.631,202.63 227.431,196.076 223.235,194.551C219.038,193.025 213.697,192.246 209.454,193.476C205.211,194.706 201.32,198.684 197.778,201.932C193.52,205.836 187.951,211.432 183.906,216.902C179.442,222.938 174.288,230.917 170.993,238.148C167.79,245.178 165.713,253.284 164.138,260.288C162.671,266.81 160.835,273.527 161.542,280.175C162.313,287.424 164.91,296.51 168.763,303.781C172.89,311.573 180.912,321.178 186.309,326.925C190.569,331.461 195.761,335.137 201.143,338.263C207.562,341.991 216.681,346.906 224.824,349.296C232.945,351.679 242.495,353.163 250,352.599C256.964,352.077 263.617,349.053 269.856,345.915C276.783,342.431 284.572,336.789 291.562,331.694C298.731,326.467 307.478,319.357 312.872,314.553C316.876,310.988 321.443,306.237 323.927,302.871C325.776,300.364 327.22,297.42 327.775,294.355C328.341,291.229 328.648,287.265 327.322,284.117C325.961,280.888 322.456,277.773 319.611,274.982C315.086,270.544 300.17,257.487 300.17,257.487Z"/>
        </clipPath>
        <g clip-path="url(#_clip1)">
            <path d="M171.495,237.907C174.243,239.311 175.755,242.398 177.56,244.9C180.021,248.312 184.478,253.334 186.258,258.374C188.254,264.028 187.017,272.394 189.537,278.82C192.194,285.596 196.904,293.102 202.2,299.03C208.158,305.698 218.178,314.077 225.281,318.828C231.209,322.792 240.231,325.56 244.822,327.533C247.455,328.664 251.315,328.229 252.828,330.662C255.436,334.86 267.5,349.372 260.475,352.719C251.935,356.787 218.105,359.753 201.59,355.073C185.418,350.49 170.343,334.904 161.386,324.637C153.939,316.102 149.789,304.596 147.844,293.471C145.899,282.347 147.872,267.573 149.715,257.889C151.23,249.925 155.268,238.7 158.898,235.369C162.055,232.474 168.385,236.319 171.495,237.907Z" style="fill:rgb(242,137,20);"/>
            <path d="M257.26,351.214C253.2,352.211 247.561,351.045 244.822,349.595C242.427,348.326 240.83,345.222 240.83,342.511C240.83,339.305 242.214,333.732 244.822,330.358C247.557,326.82 253.323,324.591 257.24,321.282C261.349,317.811 265.337,313.3 269.474,309.534C273.572,305.804 277.803,302.029 282.067,298.682C286.245,295.401 290.616,292.119 295.058,289.447C299.416,286.826 304.965,283.7 308.719,282.652C311.568,281.856 315.038,281.91 317.58,283.156C320.122,284.402 323.005,287.127 323.971,290.128C325.028,293.414 325.14,298.8 323.927,302.871C322.554,307.472 318.291,315.877 315.736,317.74C310.436,321.604 304.084,329.673 292.402,337.914C278.416,347.781 265.19,349.267 257.26,351.214Z" style="fill:rgb(246,190,98);"/>
            <clipPath id="_clip2">
                <path d="M257.26,351.214C253.2,352.211 247.561,351.045 244.822,349.595C242.427,348.326 240.83,345.222 240.83,342.511C240.83,339.305 242.214,333.732 244.822,330.358C247.557,326.82 253.323,324.591 257.24,321.282C261.349,317.811 265.337,313.3 269.474,309.534C273.572,305.804 277.803,302.029 282.067,298.682C286.245,295.401 290.616,292.119 295.058,289.447C299.416,286.826 304.965,283.7 308.719,282.652C311.568,281.856 315.038,281.91 317.58,283.156C320.122,284.402 323.005,287.127 323.971,290.128C325.028,293.414 325.14,298.8 323.927,302.871C322.554,307.472 318.291,315.877 315.736,317.74C310.436,321.604 304.084,329.673 292.402,337.914C278.416,347.781 265.19,349.267 257.26,351.214Z"/>
            </clipPath>
            <g clip-path="url(#_clip2)">
                <path d="M279.215,304.667C276.227,307.054 272.026,310.207 269.37,312.537C267.209,314.432 264.534,317.2 263.281,318.642C262.643,319.377 262.606,320.572 261.855,321.191C260.87,322.003 258.653,322.481 257.375,323.511C256.098,324.541 255.326,326.148 254.192,327.37C252.962,328.694 251.302,330.287 250,331.452C248.847,332.485 247.278,333.172 246.381,334.362C245.485,335.552 244.526,337.07 244.62,338.595C244.725,340.29 246.112,343.519 247.009,344.53C247.671,345.276 249.006,344.573 250,344.661C251.627,344.803 254.837,345.629 256.77,345.386C258.523,345.165 260.011,343.976 261.597,343.198C263.578,342.227 266.413,340.966 268.654,339.557C274.401,335.944 290.436,325.296 296.08,321.518C298.276,320.047 300.884,317.828 302.516,316.886C303.529,316.301 305.012,316.656 305.874,315.865C306.908,314.916 307.501,312.55 308.719,311.194C310.223,309.521 313.135,307.109 314.895,305.825C316.233,304.848 318.115,304.649 319.279,303.488C320.444,302.326 321.421,300.566 321.884,298.857C322.424,296.858 322.89,293.403 322.523,291.496C322.21,289.868 321.013,288.402 319.682,287.414C318.308,286.393 316.104,285.715 314.277,285.373C312.456,285.032 310.467,285.104 308.719,285.363C307.013,285.615 305.357,286.212 303.787,286.926C302.077,287.704 299.807,288.957 298.458,290.032C297.327,290.934 296.793,292.581 295.693,293.38C294.593,294.178 293.043,294.142 291.859,294.824C290.46,295.63 288.791,297.053 287.295,298.217C285.188,299.858 281.908,302.516 279.215,304.667Z" style="fill:rgb(237,219,200);"/>
                <path d="M284.282,313.856C282.582,315.037 279.098,317.095 276.556,318.792C273.91,320.559 270.863,322.955 268.409,324.454C266.312,325.735 264.038,326.702 261.833,327.787C259.591,328.891 257.241,329.962 254.958,331.075C252.503,332.272 248.702,333.523 247.099,334.97C245.837,336.11 245.172,338.119 245.343,339.76C245.513,341.402 246.47,344.286 248.121,344.82C249.771,345.354 253.122,344.198 255.244,342.965C264.165,337.782 292.736,319.309 301.648,313.72C303.983,312.256 307.247,310.89 308.719,309.434C309.853,308.313 310.482,306.456 310.482,304.985C310.482,303.515 309.774,301.599 308.719,300.611C307.665,299.624 305.761,299.037 304.155,299.061C302.499,299.085 300.389,299.78 298.789,300.759C296.945,301.887 294.972,304.119 293.091,305.83C291.086,307.654 288.226,310.369 286.758,311.707C285.95,312.443 285.18,313.233 284.282,313.856Z" style="fill:rgb(216,168,175);"/>
                <path d="M251.4,336.251C252.698,335.016 256.764,331.8 259.129,330.387C261.124,329.196 263.497,328.783 265.591,327.777C267.784,326.724 270.224,325.255 272.287,324.069C274.201,322.969 276.275,321.536 277.967,320.663C279.398,319.924 281.095,319.721 282.439,318.832C284.182,317.678 286.473,315.484 288.429,313.74C290.465,311.925 292.504,309.723 294.651,307.942C296.769,306.184 299.423,303.845 301.306,303.052C302.734,302.452 305.117,302.664 305.952,303.187C306.786,303.711 306.785,305.302 306.314,306.195C305.618,307.519 303.311,309.508 301.773,311.13C300.123,312.87 297.524,315.185 296.417,316.633C295.721,317.544 295.421,318.928 295.13,319.821C294.901,320.525 295.071,321.37 294.671,321.992C294.101,322.88 292.805,324.21 291.709,325.147C290.01,326.601 286.778,328.944 284.474,330.714C282.278,332.402 280.35,334.514 277.883,335.771C275.379,337.046 272.039,337.975 269.449,338.368C267.106,338.723 264.712,338.101 262.342,338.128C259.821,338.156 256.154,338.593 254.321,338.539C253.298,338.509 251.828,338.184 251.341,337.802C250.934,337.483 251.025,336.608 251.4,336.251Z" style="fill:rgb(244,223,171);"/>
            </g>
        </g>
    </g>
</svg>
